<?xml version="1.0" encoding="utf-8"?>
<!-- Generator: Adobe Illustrator 18.1.0, SVG Export Plug-In . SVG Version: 6.00 Build 0)  -->
<svg version="1.0" id="Layer_1" xmlns="http://www.w3.org/2000/svg" xmlns:xlink="http://www.w3.org/1999/xlink" x="0px" y="0px"
	 viewBox="0 0 150 150" enable-background="new 0 0 150 150" xml:space="preserve">
<g>
	<path fill="#C32126" d="M135.1,51.4l-22.9-23.1c-6.6-6.7-17.5-6.7-24.1-0.1L77.6,38.6L73,43.2l-4.6-4.7L58,28.1
		c-6.6-6.7-17.5-6.7-24.1-0.1L10.8,50.9C4.1,57.5,4.1,68.3,10.7,75L21,85.5l4.6,4.7l9.2,9.3l4.6,4.7l19.2,19.3l0.1-0.1l2,2
		c6.7,6.7,17.5,6.7,24.1,0L95.3,115l4.6-4.6l13.9-13.9l10.6-10.6l0,0l10.4-10.3C141.6,68.9,141.7,58.1,135.1,51.4z M104.6,87.2
		l-4.6,4.6l-9.3,9.3l-4.6,4.6l-10.4,10.4c-1.5,1.5-4,1.5-5.6,0L53.3,99.3c0,0,0,0,0,0l-4.5-4.5l-4.6-4.7L35,80.9l-4.6-4.7L20,65.8
		c-1.5-1.5-1.5-4,0-5.6l23.1-22.9c1.5-1.5,4-1.5,5.6,0L59,47.8l4.6,4.7L59,57.1l-19.2,19l18.6,0.1l9.8-9.8l4.7-4.6l9.3-9.2l4.7-4.6
		l10.4-10.3c1.5-1.5,4-1.5,5.6,0l22.9,23.1c1.5,1.5,1.5,4,0,5.6l-1.8,1.8l-0.1-0.1L104.6,87.2z"/>
</g>
</svg>
